<?xml version="1.0" standalone="no"?>
<!DOCTYPE svg PUBLIC "-//W3C//DTD SVG 20010904//EN"
 "http://www.w3.org/TR/2001/REC-SVG-20010904/DTD/svg10.dtd">
<svg version="1.0" xmlns="http://www.w3.org/2000/svg"
 width="851.000000pt" height="851.000000pt" viewBox="0 0 851.000000 851.000000"
 preserveAspectRatio="xMidYMid meet">
<metadata>
Created by potrace 1.11, written by Peter Selinger 2001-2013
</metadata>
<g transform="translate(0.000000,851.000000) scale(0.100000,-0.100000)"
fill="#000000" stroke="none">
<path d="M3854 8375 c-950 -98 -1803 -496 -2478 -1155 -358 -349 -617 -705
-833 -1145 -564 -1148 -559 -2505 14 -3649 92 -183 141 -268 259 -446 396
-598 947 -1086 1592 -1409 978 -490 2111 -571 3147 -226 1474 490 2566 1792
2784 3320 60 421 55 882 -15 1295 -199 1177 -915 2223 -1947 2844 -489 294
-1013 477 -1597 557 -201 27 -723 35 -926 14z m836 -300 c672 -83 1259 -310
1795 -694 332 -238 669 -577 902 -909 383 -545 608 -1144 684 -1822 17 -152
18 -621 0 -770 -82 -719 -328 -1350 -745 -1906 -370 -495 -822 -872 -1371
-1144 -400 -198 -773 -312 -1218 -372 -137 -19 -210 -22 -472 -23 -473 0 -786
48 -1208 185 -1330 433 -2346 1605 -2582 2980 -65 378 -73 843 -20 1205 85
576 291 1110 615 1595 469 701 1175 1238 1975 1505 296 98 619 161 960 189
109 8 565 -4 685 -19z"/>
<path d="M3614 7391 c-70 -33 -94 -61 -94 -109 0 -24 83 -202 287 -613 l287
-580 -152 -307 c-84 -169 -157 -307 -162 -307 -5 0 -185 149 -401 330 -536
450 -504 425 -547 425 -30 0 -44 -8 -85 -51 -55 -57 -80 -108 -71 -143 3 -13
22 -39 42 -58 26 -25 905 -765 930 -783 1 -1 -119 -247 -267 -547 l-268 -545
-203 -169 c-789 -658 -1158 -969 -1177 -990 -50 -55 -40 -101 41 -188 42 -46
58 -56 85 -56 18 0 41 5 53 11 11 6 203 165 426 353 224 188 412 345 419 349
11 7 -148 -321 -516 -1063 -99 -201 -181 -377 -181 -391 0 -39 34 -76 101
-109 71 -36 118 -38 153 -7 21 18 685 1347 961 1922 l71 150 435 364 c239 200
444 373 455 383 23 21 -2 41 754 -600 l175 -148 505 -1022 c278 -561 516
-1032 530 -1046 33 -36 84 -34 160 4 67 34 92 64 92 112 0 23 -109 253 -352
742 -193 390 -349 710 -348 712 2 1 116 -92 253 -208 617 -519 604 -508 638
-508 18 1 41 6 53 13 24 14 86 83 103 114 17 34 13 87 -9 110 -11 12 -326 279
-700 593 l-681 572 -271 541 c-177 354 -267 546 -262 554 5 7 214 184 464 393
250 210 465 392 478 406 42 48 26 105 -55 192 -43 45 -81 54 -126 31 -11 -7
-215 -175 -452 -374 -236 -198 -436 -364 -442 -369 -9 -5 -59 86 -167 302
l-155 309 289 584 c160 321 290 594 290 606 0 47 -23 74 -92 109 -77 39 -115
42 -149 15 -15 -11 -117 -207 -259 -494 -129 -262 -237 -476 -241 -476 -3 -1
-112 215 -244 480 -132 266 -247 487 -259 495 -31 21 -75 17 -142 -15z m766
-1880 l119 -240 -62 -53 c-150 -130 -176 -150 -189 -142 -11 7 -197 162 -223
185 -6 6 34 98 110 249 66 132 121 240 122 240 2 0 57 -108 123 -239z m-420
-580 c57 -52 63 -61 50 -74 -37 -35 -319 -267 -324 -267 -3 0 39 90 94 200 55
110 103 200 108 200 4 0 36 -27 72 -59z m773 -137 c54 -108 96 -198 94 -200
-2 -2 -79 60 -171 137 -139 117 -165 144 -154 154 25 25 123 105 128 105 3 0
49 -88 103 -196z"/>
</g>
</svg>
